# xmcd
#
# Track frame offsets: 
#        150
#        13386
#        29442
#        49371
#        66161
#        91217
#        105064
#        124503
#        141144
#        159749
#        175735
#
# Disc length: 3025 seconds
#
# Revision: 0
# Processed by: cddbd v1.5.2PL0 Copyright (c) Steve Scherf et al.
# Submitted via: ExactAudioCopy v1.0b3
#
DISCID=8d0bcf0b
DTITLE=Transvaal Diamond Syndicate - Estranged Blues
DYEAR=2014
DGENRE=Blues
TTITLE0=So Sweet
TTITLE1=Detrioit City
TTITLE2=Estranged Blues
TTITLE3=Long Lines
TTITLE4=Lay You Down
TTITLE5=Dig Man Dig
TTITLE6=Fallen
TTITLE7=Bold and Bright
TTITLE8=Mexico
TTITLE9=Guns for Hire
TTITLE10=Stitch in Time
EXTD=
EXTT0=
EXTT1=
EXTT2=
EXTT3=
EXTT4=
EXTT5=
EXTT6=
EXTT7=
EXTT8=
EXTT9=
EXTT10=
PLAYORDER=
